<?xml version="1.0" encoding="utf-8"?>
<!-- Svg Vector Icons : http://www.onlinewebfonts.com/icon -->
<!DOCTYPE svg PUBLIC "-//W3C//DTD SVG 1.1//EN" "http://www.w3.org/Graphics/SVG/1.1/DTD/svg11.dtd">
<svg version="1.1" xmlns="http://www.w3.org/2000/svg" xmlns:xlink="http://www.w3.org/1999/xlink" x="0px" y="0px" viewBox="0 0 1000 1000" enable-background="new 0 0 1000 1000" xml:space="preserve">
<metadata> Svg Vector Icons : http://www.onlinewebfonts.com/icon </metadata>
<g><g><g><path d="M621,142.3l-33.2-9.1c-4.3-1.4-8.5-1-12.6,1.3c-4.1,2.3-6.9,5.8-8.3,10.4L367.2,836.3c-1.4,4.6-1,9,1.3,13.1c2.3,4.1,5.8,6.9,10.4,8.3l33.2,9.1c4.3,1.4,8.5,1,12.6-1.3c4.1-2.3,6.9-5.8,8.3-10.4l199.8-691.4c1.4-4.6,1-9-1.3-13.1C629.2,146.5,625.7,143.7,621,142.3z"/><path d="M321.7,277.2c0-4.6-1.8-8.8-5.4-12.3l-26.8-26.8c-3.6-3.6-7.7-5.4-12.3-5.4c-4.6,0-8.8,1.8-12.3,5.4L15.4,487.7c-3.6,3.6-5.4,7.7-5.4,12.3c0,4.6,1.8,8.7,5.4,12.3l249.6,249.6c3.6,3.6,7.7,5.4,12.3,5.4s8.8-1.8,12.3-5.4l26.8-26.8c3.6-3.6,5.4-7.7,5.4-12.3c0-4.6-1.8-8.7-5.4-12.3L105.9,500l210.5-210.5C319.9,286,321.7,281.9,321.7,277.2z"/><path d="M984.6,487.7L735.1,238.1c-3.6-3.6-7.7-5.4-12.3-5.4c-4.6,0-8.7,1.8-12.3,5.4l-26.8,26.8c-3.6,3.6-5.3,7.7-5.3,12.3c0,4.6,1.8,8.8,5.3,12.3L894.2,500L683.7,710.5c-3.6,3.6-5.3,7.7-5.3,12.3c0,4.6,1.8,8.8,5.3,12.3l26.8,26.8c3.6,3.6,7.7,5.4,12.3,5.4c4.6,0,8.7-1.8,12.3-5.4l249.6-249.5c3.6-3.6,5.4-7.7,5.4-12.3C990,495.3,988.2,491.2,984.6,487.7z"/></g></g><g></g><g></g><g></g><g></g><g></g><g></g><g></g><g></g><g></g><g></g><g></g><g></g><g></g><g></g><g></g></g>
</svg>